# xmcd
#
# Track frame offsets: 
#        150
#        18133
#        35689
#        56446
#        65674
#        85219
#        99948
#        127857
#        151478
#        171321
#        188697
#        217965
#        247945
#        268639
#        282423
#        310757
#
# Disc length: 4376 seconds
#
# Revision: 0
# Processed by: cddbd v1.4PL0 Copyright (c) Steve Scherf et al.
# Submitted via: ExactAudioCopy v0.90b3
#
DISCID=d2111610
DTITLE=Various Artist - Sheryl Crow - Live Bootleg (Disk 1)
DYEAR=2002
DGENRE=Rock
TTITLE0=Sheryl Crow with Allman Brothers - Midnight Rider
TTITLE1=Sheryl Crow with Steve Earl - Time has come today
TTITLE2=Sheryl Crow with Eric Clapton - My favorite mistake
TTITLE3=Sheryl Crow with Eric Clapton - Merry Christmas baby
TTITLE4=Sheryl Crow with Eric Clapton - Tearin'us apart
TTITLE5=Sheryl Crow with Eric Clapton - Little wing
TTITLE6=Sheryl Crow with Eric Clapton - Run baby run
TTITLE7=Sheryl Crow with Robbie Robbertson - The weight
TTITLE8=Sheryl Crow with The Rolling Stones - Honky tonk women
TTITLE9=Sheryl Crow with The Rolling Stones - Live with me
TTITLE10=Sheryl Crow with Bob Dylan  - Highway 61 revisited
TTITLE11=Sheryl Crow with Bob Dylan  - Knockin' on heavens door
TTITLE12=Sheryl Crow with Willie Nelson  - Jackson
TTITLE13=Sheryl Crow with Freddy Johnson  - The Joker
TTITLE14=Sheryl Crow with Zucchero  - Blue
TTITLE15=Sheryl Crow with B.B. King and Lenny Kravitz  - Take me to the 
TTITLE15=river
EXTD=
EXTT0=
EXTT1=
EXTT2=
EXTT3=
EXTT4=
EXTT5=
EXTT6=
EXTT7=
EXTT8=
EXTT9=
EXTT10=
EXTT11=
EXTT12=
EXTT13=
EXTT14=
EXTT15=
PLAYORDER=
